<svg width="112" height="112" viewBox="0 0 112 112" fill="none" xmlns="http://www.w3.org/2000/svg">
<circle cx="55.8672" cy="55.8672" r="36" transform="rotate(54.0319 55.8672 55.8672)" stroke="#F0F2F4" stroke-width="8"/>
<mask id="mask0_103_4563" style="mask-type:alpha" maskUnits="userSpaceOnUse" x="15" y="15" width="81" height="81">
<circle cx="55.8672" cy="55.8672" r="36" transform="rotate(54.0319 55.8672 55.8672)" stroke="#F0F2F4" stroke-width="8"/>
</mask>
<g mask="url(#mask0_103_4563)">
<mask id="path-3-inside-1_103_4563" fill="white">
<path d="M79.3606 88.2409C83.867 84.9707 87.641 80.7956 90.4411 75.983C93.2412 71.1703 95.0057 65.8261 95.6217 60.2923C96.2377 54.7585 95.6916 49.1571 94.0183 43.8465C92.345 38.536 89.5815 33.6332 85.9046 29.452C82.2276 25.2709 77.7182 21.9034 72.6651 19.5652C67.6119 17.227 62.1262 15.9694 56.5591 15.8731C50.9919 15.7768 45.466 16.8439 40.335 19.0059C35.204 21.168 30.5808 24.3775 26.7615 28.429L55.8672 55.8672L79.3606 88.2409Z"/>
</mask>
<path d="M79.3606 88.2409C83.867 84.9707 87.641 80.7956 90.4411 75.983C93.2412 71.1703 95.0057 65.8261 95.6217 60.2923C96.2377 54.7585 95.6916 49.1571 94.0183 43.8465C92.345 38.536 89.5815 33.6332 85.9046 29.452C82.2276 25.2709 77.7182 21.9034 72.6651 19.5652C67.6119 17.227 62.1262 15.9694 56.5591 15.8731C50.9919 15.7768 45.466 16.8439 40.335 19.0059C35.204 21.168 30.5808 24.3775 26.7615 28.429L55.8672 55.8672L79.3606 88.2409Z" stroke="#536DFB" stroke-width="16" mask="url(#path-3-inside-1_103_4563)"/>
</g>
</svg>
